<?xml version="1.0" encoding="utf-8"?>
<!-- Generator: Adobe Illustrator 22.0.1, SVG Export Plug-In . SVG Version: 6.00 Build 0)  -->
<svg version="1.1" xmlns="http://www.w3.org/2000/svg" xmlns:xlink="http://www.w3.org/1999/xlink" x="0px" y="0px"
	 viewBox="0 0 249.2 92" style="enable-background:new 0 0 249.2 92;" xml:space="preserve">
<style type="text/css">
	.st0{fill:#4D4D4D;}
	.st1{fill:#00B1B0;}
	.st2{fill:#C1D730;}
	.st3{display:none;}
	.st4{display:inline;}
</style>
<g id="Layer_1">
	<g>
		<path class="st0" d="M103.4,35.6c-0.1-1.1-1.2-1.9-2.3-1.9c-2.1,0-2.9,1.8-2.9,3.7c0,1.8,0.8,3.6,2.9,3.6c1.4,0,2.2-1,2.4-2.4h2.3
			c-0.2,2.7-2.1,4.4-4.7,4.4c-3.3,0-5.3-2.5-5.3-5.6c0-3.2,2-5.7,5.3-5.7c2.4,0,4.3,1.4,4.6,3.9H103.4z"/>
		<path class="st0" d="M107.2,37.4c0.1-2,1.9-2.6,3.6-2.6c1.5,0,3.4,0.3,3.4,2.2v4c0,0.7,0.1,1.4,0.3,1.7h-2.2
			c-0.1-0.2-0.1-0.5-0.1-0.8c-0.7,0.7-1.7,1-2.6,1c-1.5,0-2.6-0.7-2.6-2.3c0-1.8,1.3-2.2,2.6-2.4c1.3-0.2,2.5-0.2,2.5-1
			c0-0.9-0.6-1-1.4-1c-0.8,0-1.3,0.3-1.4,1.2H107.2z M112.1,39c-0.4,0.3-1.1,0.3-1.8,0.5c-0.7,0.1-1.3,0.4-1.3,1.1
			c0,0.8,0.6,1,1.3,1c1.7,0,1.7-1.3,1.7-1.8V39z"/>
		<path class="st0" d="M116.2,35h2v1.1h0c0.5-0.9,1.5-1.3,2.4-1.3c2.3,0,2.8,1.3,2.8,3.2v4.8h-2.1v-4.4c0-1.3-0.4-1.9-1.4-1.9
			c-1.2,0-1.6,0.6-1.6,2.2v4.1h-2.1V35z"/>
		<path class="st0" d="M125.4,37.4c0.1-2,1.9-2.6,3.6-2.6c1.5,0,3.4,0.3,3.4,2.2v4c0,0.7,0.1,1.4,0.3,1.7h-2.2
			c-0.1-0.2-0.1-0.5-0.1-0.8c-0.7,0.7-1.7,1-2.6,1c-1.5,0-2.6-0.7-2.6-2.3c0-1.8,1.3-2.2,2.6-2.4c1.3-0.2,2.5-0.2,2.5-1
			c0-0.9-0.6-1-1.4-1c-0.8,0-1.3,0.3-1.4,1.2H125.4z M130.3,39c-0.4,0.3-1.1,0.3-1.8,0.5c-0.7,0.1-1.3,0.4-1.3,1.1
			c0,0.8,0.6,1,1.3,1c1.7,0,1.7-1.3,1.7-1.8V39z"/>
		<path class="st0" d="M139.9,41.8L139.9,41.8c-0.5,0.8-1.4,1.2-2.4,1.2c-2.3,0-3.5-2-3.5-4.2c0-2.1,1.2-4,3.4-4
			c0.9,0,1.8,0.4,2.3,1.2h0V32h2.1v10.7h-2V41.8z M138,36.4c-1.4,0-1.9,1.2-1.9,2.5c0,1.2,0.6,2.5,1.9,2.5c1.4,0,1.8-1.2,1.8-2.5
			C139.9,37.6,139.4,36.4,138,36.4z"/>
		<path class="st0" d="M146,33.8h-2.1V32h2.1V33.8z M143.9,35h2.1v7.8h-2.1V35z"/>
		<path class="st0" d="M147.9,37.4c0.1-2,1.9-2.6,3.6-2.6c1.5,0,3.4,0.3,3.4,2.2v4c0,0.7,0.1,1.4,0.3,1.7h-2.2
			c-0.1-0.2-0.1-0.5-0.1-0.8c-0.7,0.7-1.7,1-2.6,1c-1.5,0-2.6-0.7-2.6-2.3c0-1.8,1.3-2.2,2.6-2.4c1.3-0.2,2.5-0.2,2.5-1
			c0-0.9-0.6-1-1.4-1c-0.8,0-1.3,0.3-1.4,1.2H147.9z M152.9,39c-0.4,0.3-1.1,0.3-1.8,0.5c-0.7,0.1-1.3,0.4-1.3,1.1
			c0,0.8,0.6,1,1.3,1c1.7,0,1.7-1.3,1.7-1.8V39z"/>
		<path class="st0" d="M157,35h2v1.1h0c0.5-0.9,1.5-1.3,2.4-1.3c2.3,0,2.8,1.3,2.8,3.2v4.8h-2.1v-4.4c0-1.3-0.4-1.9-1.4-1.9
			c-1.2,0-1.7,0.6-1.7,2.2v4.1H157V35z"/>
		<path class="st0" d="M170.7,32h3.3l2.5,7.4h0l2.4-7.4h3.3v10.7h-2.2v-7.6h0l-2.6,7.6h-1.8l-2.6-7.5h0v7.5h-2.2V32z"/>
		<path class="st0" d="M186.2,39.4c0.1,1.4,0.7,2,1.9,2c0.9,0,1.5-0.5,1.7-1h1.9c-0.6,1.8-1.9,2.6-3.6,2.6c-2.4,0-4-1.7-4-4.1
			c0-2.3,1.6-4.1,4-4.1c2.6,0,3.9,2.2,3.8,4.6H186.2z M189.7,38c-0.2-1.1-0.7-1.6-1.7-1.6c-1.4,0-1.7,1-1.8,1.6H189.7z"/>
		<path class="st0" d="M193.4,35h2v1.1h0c0.5-0.9,1.5-1.3,2.4-1.3c2.3,0,2.8,1.3,2.8,3.2v4.8h-2.1v-4.4c0-1.3-0.4-1.9-1.4-1.9
			c-1.2,0-1.6,0.6-1.6,2.2v4.1h-2.1V35z"/>
		<path class="st0" d="M205.2,35h1.6v1.4h-1.6v3.8c0,0.7,0.2,0.9,0.9,0.9c0.2,0,0.4,0,0.7-0.1v1.7c-0.4,0.1-0.8,0.1-1.2,0.1
			c-1.3,0-2.4-0.3-2.4-1.8v-4.6h-1.3V35h1.3v-2.3h2.1V35z"/>
		<path class="st0" d="M208.1,37.4c0.1-2,1.9-2.6,3.6-2.6c1.5,0,3.4,0.3,3.4,2.2v4c0,0.7,0.1,1.4,0.3,1.7h-2.2
			c-0.1-0.2-0.1-0.5-0.1-0.8c-0.7,0.7-1.7,1-2.6,1c-1.5,0-2.6-0.7-2.6-2.3c0-1.8,1.3-2.2,2.6-2.4c1.3-0.2,2.5-0.2,2.5-1
			c0-0.9-0.6-1-1.4-1c-0.8,0-1.3,0.3-1.4,1.2H208.1z M213.1,39c-0.4,0.3-1.1,0.3-1.8,0.5c-0.7,0.1-1.3,0.4-1.3,1.1
			c0,0.8,0.6,1,1.3,1c1.7,0,1.7-1.3,1.7-1.8V39z"/>
		<path class="st0" d="M217.2,32h2.1v10.7h-2.1V32z"/>
		<path class="st0" d="M96.2,50h2.4v4.1h4.3V50h2.4v10.7h-2.4v-4.6h-4.3v4.6h-2.4V50z"/>
		<path class="st0" d="M109.2,57.4c0.1,1.4,0.7,2,1.9,2c0.9,0,1.5-0.5,1.7-1h1.9c-0.6,1.8-1.9,2.6-3.6,2.6c-2.4,0-4-1.7-4-4.1
			c0-2.3,1.6-4.1,4-4.1c2.6,0,3.9,2.2,3.8,4.6H109.2z M112.7,56c-0.2-1.1-0.7-1.6-1.7-1.6c-1.4,0-1.7,1-1.8,1.6H112.7z"/>
		<path class="st0" d="M116.2,55.4c0.1-2,1.9-2.6,3.6-2.6c1.5,0,3.4,0.3,3.4,2.2v4c0,0.7,0.1,1.4,0.3,1.7h-2.2
			c-0.1-0.2-0.1-0.5-0.1-0.8c-0.7,0.7-1.7,1-2.6,1c-1.5,0-2.6-0.7-2.6-2.3c0-1.8,1.3-2.2,2.6-2.4c1.3-0.2,2.5-0.2,2.5-1
			c0-0.9-0.6-1-1.4-1c-0.8,0-1.3,0.3-1.4,1.2H116.2z M121.1,57c-0.4,0.3-1.1,0.3-1.8,0.5c-0.7,0.1-1.3,0.4-1.3,1.1
			c0,0.8,0.6,1,1.3,1c1.7,0,1.7-1.3,1.7-1.8V57z"/>
		<path class="st0" d="M125.3,50h2.1v10.7h-2.1V50z"/>
		<path class="st0" d="M132.1,53h1.6v1.4h-1.6v3.8c0,0.7,0.2,0.9,0.9,0.9c0.2,0,0.4,0,0.7-0.1v1.7c-0.4,0.1-0.8,0.1-1.2,0.1
			c-1.3,0-2.4-0.3-2.4-1.8v-4.6h-1.3V53h1.3v-2.3h2.1V53z"/>
		<path class="st0" d="M135.1,50h2.1v4h0c0.5-0.9,1.5-1.3,2.3-1.3c2.3,0,2.8,1.3,2.8,3.2v4.8h-2.1v-4.4c0-1.3-0.4-1.9-1.4-1.9
			c-1.2,0-1.6,0.6-1.6,2.2v4.1h-2.1V50z"/>
		<path class="st0" d="M151.8,50h2.4l4,10.7h-2.4l-0.8-2.4h-4l-0.8,2.4h-2.4L151.8,50z M151.5,56.6h2.8l-1.4-3.9h0L151.5,56.6z"/>
		<path class="st0" d="M160.8,58.2c0,0.9,0.8,1.3,1.6,1.3c0.6,0,1.4-0.2,1.4-1c0-0.6-0.9-0.9-2.4-1.2c-1.2-0.3-2.5-0.7-2.5-2.1
			c0-2,1.7-2.5,3.4-2.5c1.7,0,3.3,0.6,3.4,2.5h-2c-0.1-0.8-0.7-1-1.5-1c-0.5,0-1.2,0.1-1.2,0.7c0,0.8,1.2,0.9,2.4,1.2
			c1.2,0.3,2.5,0.7,2.5,2.2c0,2-1.8,2.7-3.5,2.7c-1.8,0-3.6-0.7-3.6-2.7H160.8z"/>
		<path class="st0" d="M169.2,58.2c0,0.9,0.8,1.3,1.6,1.3c0.6,0,1.4-0.2,1.4-1c0-0.6-0.9-0.9-2.4-1.2c-1.2-0.3-2.5-0.7-2.5-2.1
			c0-2,1.7-2.5,3.4-2.5c1.7,0,3.3,0.6,3.4,2.5h-2c-0.1-0.8-0.7-1-1.5-1c-0.5,0-1.2,0.1-1.2,0.7c0,0.8,1.2,0.9,2.4,1.2
			c1.2,0.3,2.5,0.7,2.5,2.2c0,2-1.8,2.7-3.5,2.7c-1.8,0-3.6-0.7-3.6-2.7H169.2z"/>
		<path class="st0" d="M179.6,52.8c2.4,0,4,1.6,4,4.1c0,2.5-1.6,4.1-4,4.1c-2.4,0-4-1.6-4-4.1C175.6,54.4,177.2,52.8,179.6,52.8z
			 M179.6,59.4c1.5,0,1.9-1.2,1.9-2.5c0-1.2-0.4-2.5-1.9-2.5c-1.4,0-1.9,1.2-1.9,2.5C177.7,58.1,178.2,59.4,179.6,59.4z"/>
		<path class="st0" d="M190.5,55.7c-0.1-0.9-0.7-1.3-1.6-1.3c-1.4,0-1.8,1.4-1.8,2.5c0,1.1,0.4,2.4,1.8,2.4c1,0,1.6-0.6,1.7-1.6h2.1
			c-0.3,2.1-1.7,3.2-3.7,3.2c-2.3,0-3.9-1.7-3.9-4c0-2.4,1.4-4.2,4-4.2c1.8,0,3.5,1,3.6,2.9H190.5z"/>
		<path class="st0" d="M196.4,51.8h-2.1V50h2.1V51.8z M194.2,53h2.1v7.8h-2.1V53z"/>
		<path class="st0" d="M198.2,55.4c0.1-2,1.9-2.6,3.6-2.6c1.5,0,3.4,0.3,3.4,2.2v4c0,0.7,0.1,1.4,0.3,1.7h-2.2
			c-0.1-0.2-0.1-0.5-0.2-0.8c-0.7,0.7-1.7,1-2.6,1c-1.5,0-2.6-0.7-2.6-2.3c0-1.8,1.3-2.2,2.6-2.4c1.3-0.2,2.5-0.2,2.5-1
			c0-0.9-0.6-1-1.4-1c-0.8,0-1.3,0.3-1.4,1.2H198.2z M203.2,57c-0.4,0.3-1.1,0.3-1.8,0.5c-0.7,0.1-1.3,0.4-1.3,1.1
			c0,0.8,0.6,1,1.3,1c1.7,0,1.7-1.3,1.7-1.8V57z"/>
		<path class="st0" d="M209.9,53h1.6v1.4h-1.6v3.8c0,0.7,0.2,0.9,0.9,0.9c0.2,0,0.4,0,0.7-0.1v1.7c-0.4,0.1-0.8,0.1-1.2,0.1
			c-1.3,0-2.4-0.3-2.4-1.8v-4.6h-1.3V53h1.3v-2.3h2.1V53z"/>
		<path class="st0" d="M215.2,51.8h-2.1V50h2.1V51.8z M213.1,53h2.1v7.8h-2.1V53z"/>
		<path class="st0" d="M220.9,52.8c2.4,0,4,1.6,4,4.1c0,2.5-1.6,4.1-4,4.1c-2.4,0-4-1.6-4-4.1C216.9,54.4,218.5,52.8,220.9,52.8z
			 M220.9,59.4c1.5,0,1.9-1.2,1.9-2.5c0-1.2-0.4-2.5-1.9-2.5c-1.4,0-1.9,1.2-1.9,2.5C219,58.1,219.5,59.4,220.9,59.4z"/>
		<path class="st0" d="M226.6,53h2v1.1h0c0.5-0.9,1.5-1.3,2.4-1.3c2.3,0,2.8,1.3,2.8,3.2v4.8h-2.1v-4.4c0-1.3-0.4-1.9-1.4-1.9
			c-1.2,0-1.7,0.6-1.7,2.2v4.1h-2.1V53z"/>
	</g>
	<g>
		<path class="st1" d="M40.9,32.3c0-1.5,1.2-2.7,2.7-2.7c1.5,0,2.7,1.2,2.7,2.7c0,1.5-1.2,2.7-2.7,2.7
			C42.1,35.1,40.9,33.8,40.9,32.3z M44.2,38l34.5-23.6H15L44.2,38z"/>
		<polygon class="st1" points="14.5,15.5 51,50.7 14.5,78.7 		"/>
		<polygon class="st1" points="80.8,14.4 48.7,39.2 80.8,78.4 		"/>
		<path class="st2" d="M48.3,74.8c12.8,0,24.2,1.6,31.2,4.1h0.4L53.6,53.5L16.3,78.9h0.7C24.1,76.4,35.4,74.8,48.3,74.8z"/>
	</g>
</g>
<g id="Layer_2" class="st3">
	<g class="st4">
		<path class="st0" d="M99.2,32.1h2.3l3.7,10h-2.3l-0.8-2.2h-3.7l-0.8,2.2h-2.2L99.2,32.1z M99,38.2h2.6l-1.3-3.7h0L99,38.2z"/>
		<path class="st0" d="M107.6,39.7c0,0.9,0.7,1.2,1.5,1.2c0.6,0,1.3-0.2,1.3-0.9c0-0.6-0.8-0.8-2.3-1.1c-1.1-0.3-2.3-0.7-2.3-1.9
			c0-1.8,1.6-2.3,3.2-2.3c1.6,0,3,0.5,3.2,2.3h-1.9c-0.1-0.8-0.6-1-1.4-1c-0.4,0-1.1,0.1-1.1,0.7c0,0.7,1.1,0.8,2.3,1.1
			c1.2,0.3,2.3,0.7,2.3,2c0,1.9-1.7,2.5-3.3,2.5c-1.7,0-3.3-0.6-3.4-2.5H107.6z"/>
		<path class="st0" d="M115.5,39.7c0,0.9,0.7,1.2,1.5,1.2c0.6,0,1.3-0.2,1.3-0.9c0-0.6-0.8-0.8-2.3-1.1c-1.1-0.3-2.3-0.7-2.3-1.9
			c0-1.8,1.6-2.3,3.2-2.3c1.6,0,3,0.5,3.2,2.3h-1.9c-0.1-0.8-0.6-1-1.4-1c-0.4,0-1.1,0.1-1.1,0.7c0,0.7,1.1,0.8,2.3,1.1
			c1.2,0.3,2.3,0.7,2.3,2c0,1.9-1.7,2.5-3.3,2.5c-1.7,0-3.3-0.6-3.4-2.5H115.5z"/>
		<path class="st0" d="M125.2,34.7c2.3,0,3.8,1.5,3.8,3.8c0,2.3-1.5,3.8-3.8,3.8c-2.3,0-3.7-1.5-3.7-3.8
			C121.4,36.2,122.9,34.7,125.2,34.7z M125.2,40.8c1.4,0,1.8-1.2,1.8-2.3c0-1.2-0.4-2.3-1.8-2.3c-1.3,0-1.8,1.2-1.8,2.3
			C123.4,39.6,123.8,40.8,125.2,40.8z"/>
		<path class="st0" d="M135.4,37.4c-0.1-0.8-0.6-1.2-1.5-1.2c-1.3,0-1.7,1.3-1.7,2.4c0,1,0.4,2.3,1.7,2.3c0.9,0,1.5-0.6,1.6-1.5h1.9
			c-0.3,1.9-1.6,3-3.5,3c-2.2,0-3.7-1.5-3.7-3.7c0-2.3,1.3-3.9,3.7-3.9c1.7,0,3.3,0.9,3.4,2.7H135.4z"/>
		<path class="st0" d="M140.8,33.7h-2v-1.6h2V33.7z M138.8,34.9h2v7.2h-2V34.9z"/>
		<path class="st0" d="M142.6,37.1c0.1-1.9,1.8-2.4,3.4-2.4c1.4,0,3.2,0.3,3.2,2.1v3.8c0,0.7,0.1,1.3,0.3,1.6h-2
			c-0.1-0.2-0.1-0.5-0.1-0.7c-0.6,0.7-1.6,0.9-2.4,0.9c-1.4,0-2.5-0.7-2.5-2.2c0-1.6,1.2-2,2.5-2.2c1.2-0.2,2.4-0.1,2.4-1
			c0-0.9-0.6-1-1.3-1c-0.8,0-1.2,0.3-1.3,1.1H142.6z M147.2,38.6c-0.3,0.3-1,0.3-1.7,0.4c-0.6,0.1-1.2,0.3-1.2,1.1
			c0,0.7,0.6,0.9,1.2,0.9c1.6,0,1.6-1.2,1.6-1.7V38.6z"/>
		<path class="st0" d="M153.5,34.9h1.5v1.3h-1.5v3.6c0,0.7,0.2,0.8,0.8,0.8c0.2,0,0.4,0,0.6-0.1v1.6c-0.3,0.1-0.8,0.1-1.2,0.1
			c-1.2,0-2.3-0.3-2.3-1.7v-4.3h-1.2v-1.3h1.2v-2.2h2V34.9z"/>
		<path class="st0" d="M158.4,33.7h-2v-1.6h2V33.7z M156.4,34.9h2v7.2h-2V34.9z"/>
		<path class="st0" d="M163.7,34.7c2.3,0,3.8,1.5,3.8,3.8c0,2.3-1.5,3.8-3.8,3.8c-2.3,0-3.7-1.5-3.7-3.8
			C160,36.2,161.5,34.7,163.7,34.7z M163.7,40.8c1.4,0,1.8-1.2,1.8-2.3c0-1.2-0.4-2.3-1.8-2.3c-1.3,0-1.8,1.2-1.8,2.3
			C162,39.6,162.4,40.8,163.7,40.8z"/>
		<path class="st0" d="M169,34.9h1.9v1h0c0.5-0.8,1.4-1.2,2.2-1.2c2.1,0,2.6,1.2,2.6,3v4.5h-2V38c0-1.2-0.4-1.8-1.3-1.8
			c-1.1,0-1.5,0.6-1.5,2.1v3.8h-2V34.9z"/>
		<path class="st0" d="M186.6,37.4c-0.1-0.8-0.6-1.2-1.5-1.2c-1.3,0-1.7,1.3-1.7,2.4c0,1,0.4,2.3,1.7,2.3c0.9,0,1.5-0.6,1.6-1.5h1.9
			c-0.3,1.9-1.6,3-3.5,3c-2.2,0-3.7-1.5-3.7-3.7c0-2.3,1.3-3.9,3.7-3.9c1.7,0,3.3,0.9,3.4,2.7H186.6z"/>
		<path class="st0" d="M189.9,37.1c0.1-1.9,1.8-2.4,3.4-2.4c1.4,0,3.2,0.3,3.2,2.1v3.8c0,0.7,0.1,1.3,0.3,1.6h-2
			c-0.1-0.2-0.1-0.5-0.1-0.7c-0.6,0.7-1.6,0.9-2.4,0.9c-1.4,0-2.5-0.7-2.5-2.2c0-1.6,1.2-2,2.5-2.2c1.2-0.2,2.4-0.1,2.4-1
			c0-0.9-0.6-1-1.3-1c-0.8,0-1.2,0.3-1.3,1.1H189.9z M194.5,38.6c-0.3,0.3-1,0.3-1.7,0.4c-0.6,0.1-1.2,0.3-1.2,1.1
			c0,0.7,0.6,0.9,1.2,0.9c1.6,0,1.6-1.2,1.6-1.7V38.6z"/>
		<path class="st0" d="M198.4,34.9h1.9v1h0c0.5-0.8,1.4-1.2,2.2-1.2c2.1,0,2.6,1.2,2.6,3v4.5h-2V38c0-1.2-0.3-1.8-1.3-1.8
			c-1.1,0-1.5,0.6-1.5,2.1v3.8h-2V34.9z"/>
		<path class="st0" d="M206.9,37.1c0.1-1.9,1.8-2.4,3.4-2.4c1.4,0,3.2,0.3,3.2,2.1v3.8c0,0.7,0.1,1.3,0.3,1.6h-2
			c-0.1-0.2-0.1-0.5-0.1-0.7c-0.6,0.7-1.6,0.9-2.4,0.9c-1.4,0-2.5-0.7-2.5-2.2c0-1.6,1.2-2,2.5-2.2c1.2-0.2,2.4-0.1,2.4-1
			c0-0.9-0.6-1-1.3-1c-0.8,0-1.2,0.3-1.3,1.1H206.9z M211.5,38.6c-0.3,0.3-1,0.3-1.7,0.4c-0.6,0.1-1.2,0.3-1.2,1.1
			c0,0.7,0.6,0.9,1.2,0.9c1.6,0,1.6-1.2,1.6-1.7V38.6z"/>
		<path class="st0" d="M220.4,41.2L220.4,41.2c-0.5,0.8-1.3,1.1-2.2,1.1c-2.2,0-3.3-1.9-3.3-3.9c0-1.9,1.1-3.8,3.2-3.8
			c0.9,0,1.7,0.4,2.1,1.1h0v-3.6h2v10h-1.9V41.2z M218.7,36.2c-1.3,0-1.8,1.1-1.8,2.3c0,1.1,0.5,2.3,1.8,2.3c1.3,0,1.7-1.1,1.7-2.3
			C220.4,37.3,220,36.2,218.7,36.2z"/>
		<path class="st0" d="M226.2,33.7h-2v-1.6h2V33.7z M224.2,34.9h2v7.2h-2V34.9z"/>
		<path class="st0" d="M229.7,39c0.1,1.3,0.7,1.8,1.8,1.8c0.8,0,1.4-0.5,1.6-0.9h1.8c-0.6,1.7-1.8,2.4-3.4,2.4
			c-2.3,0-3.7-1.6-3.7-3.8c0-2.2,1.5-3.8,3.7-3.8c2.5,0,3.7,2.1,3.5,4.3H229.7z M232.9,37.7c-0.2-1-0.6-1.5-1.6-1.5
			c-1.3,0-1.6,1-1.7,1.5H232.9z"/>
		<path class="st0" d="M236.4,34.9h1.9v1h0c0.5-0.8,1.4-1.2,2.2-1.2c2.1,0,2.6,1.2,2.6,3v4.5h-2V38c0-1.2-0.4-1.8-1.3-1.8
			c-1.1,0-1.5,0.6-1.5,2.1v3.8h-2V34.9z"/>
		<path class="st0" d="M245,34.9h1.9v1h0c0.5-0.8,1.4-1.2,2.2-1.2c2.1,0,2.6,1.2,2.6,3v4.5h-2V38c0-1.2-0.4-1.8-1.3-1.8
			c-1.1,0-1.5,0.6-1.5,2.1v3.8h-2V34.9z"/>
		<path class="st0" d="M96.2,51.7h1.9v0.9h0c0.5-0.8,1.3-1.1,2.2-1.1c2.3,0,3.3,1.8,3.3,3.9c0,1.9-1.1,3.7-3.2,3.7
			c-0.9,0-1.7-0.4-2.2-1.1h0v3.4h-2V51.7z M101.6,55.3c0-1.1-0.5-2.3-1.7-2.3c-1.3,0-1.7,1.2-1.7,2.3c0,1.2,0.4,2.3,1.7,2.3
			C101.2,57.6,101.6,56.5,101.6,55.3z"/>
		<path class="st0" d="M108.6,51.5c2.3,0,3.8,1.5,3.8,3.8c0,2.3-1.5,3.8-3.8,3.8c-2.3,0-3.7-1.5-3.7-3.8
			C104.8,53,106.3,51.5,108.6,51.5z M108.6,57.6c1.4,0,1.8-1.2,1.8-2.3c0-1.2-0.4-2.3-1.8-2.3c-1.3,0-1.8,1.2-1.8,2.3
			C106.8,56.4,107.2,57.6,108.6,57.6z"/>
		<path class="st0" d="M120.7,58.9h-1.9v-1h0c-0.5,0.8-1.4,1.2-2.2,1.2c-2.1,0-2.6-1.2-2.6-3v-4.5h2v4.1c0,1.2,0.4,1.8,1.3,1.8
			c1.1,0,1.5-0.6,1.5-2.1v-3.8h2V58.9z"/>
		<path class="st0" d="M122.5,51.7h1.9V53h0c0.4-0.9,1.3-1.5,2.3-1.5c0.1,0,0.3,0,0.4,0.1v1.8c-0.2,0-0.5-0.1-0.7-0.1
			c-1.5,0-2,1.1-2,2.3v3.3h-2V51.7z"/>
		<path class="st0" d="M132.3,48.9h2v10h-2V48.9z"/>
		<path class="st0" d="M136.1,53.9c0.1-1.9,1.8-2.4,3.4-2.4c1.4,0,3.2,0.3,3.2,2.1v3.8c0,0.7,0.1,1.3,0.3,1.6h-2
			c-0.1-0.2-0.1-0.5-0.1-0.7c-0.6,0.7-1.6,0.9-2.4,0.9c-1.4,0-2.5-0.7-2.5-2.2c0-1.6,1.2-2,2.5-2.2c1.2-0.2,2.4-0.1,2.4-1
			c0-0.9-0.6-1-1.3-1c-0.8,0-1.2,0.3-1.3,1.1H136.1z M140.7,55.4c-0.3,0.3-1,0.3-1.7,0.4c-0.6,0.1-1.2,0.3-1.2,1.1
			c0,0.7,0.6,0.9,1.2,0.9c1.6,0,1.6-1.2,1.6-1.7V55.4z"/>
		<path class="st0" d="M150,56.5c0,0.9,0.7,1.2,1.5,1.2c0.6,0,1.3-0.2,1.3-0.9c0-0.6-0.8-0.8-2.3-1.1c-1.1-0.3-2.3-0.7-2.3-1.9
			c0-1.8,1.6-2.3,3.2-2.3c1.6,0,3,0.5,3.2,2.3h-1.9c-0.1-0.8-0.6-1-1.4-1c-0.4,0-1.1,0.1-1.1,0.7c0,0.7,1.1,0.8,2.3,1.1
			c1.2,0.3,2.3,0.7,2.3,2c0,1.9-1.7,2.5-3.3,2.5c-1.7,0-3.3-0.6-3.4-2.5H150z"/>
		<path class="st0" d="M156.3,53.9c0.1-1.9,1.8-2.4,3.4-2.4c1.4,0,3.2,0.3,3.2,2.1v3.8c0,0.7,0.1,1.3,0.3,1.6h-2
			c-0.1-0.2-0.1-0.5-0.1-0.7c-0.6,0.7-1.6,0.9-2.4,0.9c-1.4,0-2.5-0.7-2.5-2.2c0-1.6,1.2-2,2.5-2.2c1.2-0.2,2.4-0.1,2.4-1
			c0-0.9-0.6-1-1.3-1c-0.8,0-1.2,0.3-1.3,1.1H156.3z M160.9,55.4c-0.3,0.3-1,0.3-1.7,0.4c-0.6,0.1-1.2,0.3-1.2,1.1
			c0,0.7,0.6,0.9,1.2,0.9c1.6,0,1.6-1.2,1.6-1.7V55.4z"/>
		<path class="st0" d="M164.7,51.7h1.9v1h0c0.5-0.8,1.4-1.2,2.2-1.2c2.1,0,2.6,1.2,2.6,3v4.5h-2v-4.1c0-1.2-0.3-1.8-1.3-1.8
			c-1.1,0-1.5,0.6-1.5,2.1v3.8h-2V51.7z"/>
		<path class="st0" d="M175.8,51.7h1.5V53h-1.5v3.6c0,0.7,0.2,0.8,0.8,0.8c0.2,0,0.4,0,0.6-0.1v1.6c-0.3,0.1-0.8,0.1-1.2,0.1
			c-1.2,0-2.3-0.3-2.3-1.7V53h-1.2v-1.3h1.2v-2.2h2V51.7z"/>
		<path class="st0" d="M180.1,55.8c0.1,1.3,0.7,1.8,1.8,1.8c0.8,0,1.4-0.5,1.6-0.9h1.8c-0.6,1.7-1.8,2.4-3.4,2.4
			c-2.3,0-3.7-1.6-3.7-3.8c0-2.2,1.5-3.8,3.7-3.8c2.5,0,3.7,2.1,3.5,4.3H180.1z M183.3,54.5c-0.2-1-0.6-1.5-1.6-1.5
			c-1.3,0-1.6,1-1.7,1.5H183.3z M182,50.8h-1.4l1.3-2h2.2L182,50.8z"/>
		<path class="st0" d="M190.8,51.7h1.9v1h0c0.5-0.7,1.3-1.2,2.2-1.2c0.9,0,1.7,0.3,2.1,1.2c0.4-0.6,1.2-1.2,2.2-1.2
			c1.5,0,2.6,0.7,2.6,2.6v4.8h-2v-4.1c0-1-0.1-1.8-1.2-1.8c-1.1,0-1.3,0.9-1.3,1.8v4h-2v-4.1c0-0.8,0.1-1.8-1.2-1.8
			c-0.4,0-1.3,0.3-1.3,1.7v4.2h-2V51.7z"/>
		<path class="st0" d="M205.4,55.8c0.1,1.3,0.7,1.8,1.8,1.8c0.8,0,1.4-0.5,1.6-0.9h1.8c-0.6,1.7-1.8,2.4-3.4,2.4
			c-2.3,0-3.7-1.6-3.7-3.8c0-2.2,1.5-3.8,3.7-3.8c2.5,0,3.7,2.1,3.5,4.3H205.4z M208.6,54.5c-0.2-1-0.6-1.5-1.6-1.5
			c-1.3,0-1.6,1-1.7,1.5H208.6z"/>
		<path class="st0" d="M212.1,51.7h1.9v1h0c0.5-0.8,1.4-1.2,2.2-1.2c2.1,0,2.6,1.2,2.6,3v4.5h-2v-4.1c0-1.2-0.4-1.8-1.3-1.8
			c-1.1,0-1.5,0.6-1.5,2.1v3.8h-2V51.7z"/>
		<path class="st0" d="M223.2,51.7h1.5V53h-1.5v3.6c0,0.7,0.2,0.8,0.8,0.8c0.2,0,0.4,0,0.6-0.1v1.6c-0.3,0.1-0.8,0.1-1.2,0.1
			c-1.2,0-2.3-0.3-2.3-1.7V53H220v-1.3h1.2v-2.2h2V51.7z"/>
		<path class="st0" d="M225.9,53.9c0.1-1.9,1.8-2.4,3.4-2.4c1.4,0,3.2,0.3,3.2,2.1v3.8c0,0.7,0.1,1.3,0.3,1.6h-2
			c-0.1-0.2-0.1-0.5-0.1-0.7c-0.6,0.7-1.6,0.9-2.4,0.9c-1.4,0-2.5-0.7-2.5-2.2c0-1.6,1.2-2,2.5-2.2c1.2-0.2,2.4-0.1,2.4-1
			c0-0.9-0.6-1-1.3-1c-0.8,0-1.2,0.3-1.3,1.1H225.9z M230.5,55.4c-0.3,0.3-1,0.3-1.7,0.4c-0.6,0.1-1.2,0.3-1.2,1.1
			c0,0.7,0.6,0.9,1.2,0.9c1.6,0,1.6-1.2,1.6-1.7V55.4z"/>
		<path class="st0" d="M234.4,48.9h2v10h-2V48.9z"/>
		<path class="st0" d="M239.9,55.8c0.1,1.3,0.7,1.8,1.8,1.8c0.8,0,1.4-0.5,1.6-0.9h1.8c-0.6,1.7-1.8,2.4-3.4,2.4
			c-2.3,0-3.7-1.6-3.7-3.8c0-2.2,1.5-3.8,3.7-3.8c2.5,0,3.7,2.1,3.5,4.3H239.9z M243.1,54.5c-0.2-1-0.6-1.5-1.6-1.5
			c-1.3,0-1.6,1-1.7,1.5H243.1z"/>
	</g>
	<g class="st4">
		<path class="st1" d="M40.6,32.7c0-1.5,1.2-2.7,2.7-2.7c1.5,0,2.7,1.2,2.7,2.7c0,1.5-1.2,2.7-2.7,2.7
			C41.8,35.4,40.6,34.2,40.6,32.7z M43.9,38.3l34.5-23.6H14.7L43.9,38.3z"/>
		<polygon class="st1" points="14.2,15.8 50.7,51 14.2,79 		"/>
		<polygon class="st1" points="80.5,14.7 48.5,39.5 80.5,78.7 		"/>
		<path class="st2" d="M48,75.1c12.8,0,24.2,1.6,31.2,4.1h0.4L53.4,53.8L16.1,79.2h0.7C23.8,76.7,35.2,75.1,48,75.1z"/>
	</g>
</g>
</svg>
